{
  "accessors": [
    {
      "bufferView": 1,
      "componentType": 5126,
      "count": 52,
      "max": [
        54.746028900146484,
        62.315708160400391,
        1
      ],
      "min": [
        -16.82642936706543,
        -22.879669189453125,
        -5.7602100372314453
      ],
      "type": "VEC3"
    },
    {
      "bufferView": 1,
      "byteOffset": 624,
      "componentType": 5126,
      "count": 52,
      "max": [
        1,
        1,
        1
      ],
      "min": [
        -1,
        -1,
        -1
      ],
      "type": "VEC3"
    },
    {
      "bufferView": 0,
      "componentType": 5125,
      "count": 78,
      "max": [
        51
      ],
      "min": [
        0
      ],
      "type": "SCALAR"
    },
    {
      "bufferView": 1,
      "byteOffset": 1248,
      "componentType": 5126,
      "count": 68,
      "max": [
        9.2690401077270508,
        51.884780883789062,
        1
      ],
      "min": [
        -16.82642936706543,
        -12.285699844360352,
        -1.746880054473877
      ],
      "type": "VEC3"
    },
    {
      "bufferView": 1,
      "byteOffset": 2064,
      "componentType": 5126,
      "count": 68,
      "max": [
        1,
        1,
        1
      ],
      "min": [
        -1,
        -1,
        -1
      ],
      "type": "VEC3"
    },
    {
      "bufferView": 0,
      "byteOffset": 312,
      "componentType": 5125,
      "count": 102,
      "max": [
        67
      ],
      "min": [
        0
      ],
      "type": "SCALAR"
    },
    {
      "bufferView": 1,
      "byteOffset": 2880,
      "componentType": 5126,
      "count": 40,
      "max": [
        56.576770782470703,
        62.940399169921875,
        -0.73859000205993652
      ],
      "min": [
        -3.1023099422454834,
        -23.504360198974609,
        -5.9200100898742676
      ],
      "type": "VEC3"
    },
    {
      "bufferView": 1,
      "byteOffset": 3360,
      "componentType": 5126,
      "count": 40,
      "max": [
        0.12686993181705475,
        1,
        0.99191939830780029
      ],
      "min": [
        -0.12686993181705475,
        -1,
        -0.99635964632034302
      ],
      "type": "VEC3"
    },
    {
      "bufferView": 0,
      "byteOffset": 720,
      "componentType": 5125,
      "count": 72,
      "max": [
        39
      ],
      "min": [
        0
      ],
      "type": "SCALAR"
    },
    {
      "bufferView": 1,
      "byteOffset": 3840,
      "componentType": 5126,
      "count": 32,
      "max": [
        56.576770782470703,
        62.940399169921875,
        -0.73859000205993652
      ],
      "min": [
        -1.3299599885940552,
        -23.504360198974609,
        -5.6933197975158691
      ],
      "type": "VEC3"
    },
    {
      "bufferView": 1,
      "byteOffset": 4224,
      "componentType": 5126,
      "count": 32,
      "max": [
        0.10063039511442184,
        0.0096900239586830139,
        0.99742048978805542
      ],
      "min": [
        -0.085249967873096466,
        -0.0096900239586830139,
        -0.99635964632034302
      ],
      "type": "VEC3"
    },
    {
      "bufferView": 0,
      "byteOffset": 1008,
      "componentType": 5125,
      "count": 60,
      "max": [
        31
      ],
      "min": [
        0
      ],
      "type": "SCALAR"
    }
  ],
  "asset": {
    "extras": {
      "author": "Veninhu (https://sketchfab.com/BigEmis)",
      "license": "CC-BY-4.0 (http://creativecommons.org/licenses/by/4.0/)",
      "source": "https://sketchfab.com/3d-models/tv-modelo-3d-63ead0af882f45bf849c1269a35e6c78",
      "title": "TV Modelo 3D"
    },
    "generator": "Sketchfab-8.33.0",
    "version": "2.0"
  },
  "bufferViews": [
    {
      "buffer": 0,
      "byteLength": 1248,
      "byteOffset": 0,
      "name": "floatBufferViews",
      "target": 34963
    },
    {
      "buffer": 0,
      "byteLength": 4608,
      "byteOffset": 1248,
      "byteStride": 12,
      "name": "floatBufferViews",
      "target": 34962
    }
  ],
  "buffers": [
    {
      "byteLength": 5856,
      "uri": "scene.bin"
    }
  ],
  "materials": [
    {
      "doubleSided": true,
      "emissiveFactor": [
        0,
        0,
        0
      ],
      "name": "Material.003",
      "pbrMetallicRoughness": {
        "baseColorFactor": [
          0.073677894723742907,
          0.062928703411592929,
          0.062928703411592929,
          1
        ],
        "metallicFactor": 0.96273224878060482,
        "roughnessFactor": 0.59999999999999998
      }
    },
    {
      "doubleSided": true,
      "emissiveFactor": [
        0,
        0,
        0
      ],
      "name": "Material.010",
      "pbrMetallicRoughness": {
        "baseColorFactor": [
          0.1192759573,
          0.1192759573,
          0.1192759573,
          1
        ],
        "metallicFactor": 0,
        "roughnessFactor": 0.59999999999999998
      }
    },
    {
      "doubleSided": true,
      "emissiveFactor": [
        0,
        0,
        0
      ],
      "name": "Material.001",
      "pbrMetallicRoughness": {
        "baseColorFactor": [
          0.0036420828999999999,
          0.0036420828999999999,
          0.0036420828999999999,
          1
        ],
        "metallicFactor": 0,
        "roughnessFactor": 0.59999999999999998
      }
    },
    {
      "doubleSided": true,
      "emissiveFactor": [
        0,
        0,
        0
      ],
      "name": "Material.007",
      "pbrMetallicRoughness": {
        "baseColorFactor": [
          0.011087600099999999,
          0.011087600099999999,
          0.011087600099999999,
          1
        ],
        "metallicFactor": 0,
        "roughnessFactor": 0.59999999999999998
      }
    }
  ],
  "meshes": [
    {
      "name": "Cube.006_0",
      "primitives": [
        {
          "attributes": {
            "NORMAL": 1,
            "POSITION": 0
          },
          "indices": 2,
          "material": 0,
          "mode": 4
        }
      ]
    },
    {
      "name": "Cube.006_1",
      "primitives": [
        {
          "attributes": {
            "NORMAL": 4,
            "POSITION": 3
          },
          "indices": 5,
          "material": 1,
          "mode": 4
        }
      ]
    },
    {
      "name": "Cube.006_2",
      "primitives": [
        {
          "attributes": {
            "NORMAL": 7,
            "POSITION": 6
          },
          "indices": 8,
          "material": 2,
          "mode": 4
        }
      ]
    },
    {
      "name": "Cube.006_3",
      "primitives": [
        {
          "attributes": {
            "NORMAL": 10,
            "POSITION": 9
          },
          "indices": 11,
          "material": 3,
          "mode": 4
        }
      ]
    }
  ],
  "nodes": [
    {
      "children": [
        1
      ],
      "name": "RootNode (gltf orientation matrix)",
      "rotation": [
        -0.70710678118654746,
        -0,
        -0,
        0.70710678118654757
      ]
    },
    {
      "children": [
        2
      ],
      "matrix": [
        0.14217177033424377,
        0,
        0,
        0,
        0,
        0.14217177033424377,
        0,
        0,
        0,
        0,
        0.14217177033424377,
        0,
        0,
        0,
        0,
        1
      ],
      "name": "RootNode (model correction matrix)"
    },
    {
      "children": [
        3,
        8
      ],
      "name": "Root"
    },
    {
      "children": [
        4,
        5,
        6,
        7
      ],
      "matrix": [
        -0.069860000000000019,
        0,
        0.085420000000000024,
        0,
        -0,
        -0.20249000000000003,
        0,
        0,
        -0.81652000000000002,
        0,
        -0.66783000000000015,
        0,
        -1.67276,
        3.43357,
        0.94023000000000001,
        1
      ],
      "name": "Cube.006"
    },
    {
      "mesh": 0,
      "name": "Cube.006_0"
    },
    {
      "mesh": 1,
      "name": "Cube.006_1"
    },
    {
      "mesh": 2,
      "name": "Cube.006_2"
    },
    {
      "mesh": 3,
      "name": "Cube.006_3"
    },
    {
      "children": [
        9
      ],
      "matrix": [
        1,
        0,
        0,
        0,
        0,
        1,
        0,
        0,
        0,
        0,
        1,
        0,
        3.3035900000000002,
        0.78039999999999998,
        5.5706400000000009,
        1
      ],
      "name": "Point"
    },
    {
      "name": "Point"
    }
  ],
  "scene": 0,
  "scenes": [
    {
      "name": "OSG_Scene",
      "nodes": [
        0
      ]
    }
  ]
}

